<?xml version="1.0" encoding="iso-8859-1"?>
<!-- Generator: Adobe Illustrator 19.0.0, SVG Export Plug-In . SVG Version: 6.00 Build 0)  -->
<svg version="1.1" id="Layer_1" xmlns="http://www.w3.org/2000/svg" xmlns:xlink="http://www.w3.org/1999/xlink" x="0px" y="0px"
	 viewBox="0 0 510.503 510.503" style="enable-background:new 0 0 510.503 510.503;" xml:space="preserve">
<g>
	<g>
		<g>
			<path d="M500.504,248.069h-16.442l-34.373-67.842c-0.08-0.158-0.165-0.314-0.253-0.469c-5.045-8.767-11.887-16.168-19.924-21.839
				c0.26-0.891,0.406-1.831,0.406-2.805v-25.027c0-23.287-18.946-42.233-42.233-42.233h-51.251c-28.864,0-57.039,5.562-83.742,16.53
				L200.39,125.87c-9.125,3.749-14.165,13.127-12.254,22.806c0.306,1.551,0.791,3.017,1.402,4.402
				c-11.362,3.726-21.513,8.759-30.196,15.053c-23.174,16.798-35.423,42.116-35.423,73.219v6.72H69.798
				c-30.394,0-56.298,19.535-65.854,46.703c-0.812,1.34-1.316,2.883-1.42,4.538C0.891,305.223,0,311.441,0,317.866v46.43
				c0,5.522,4.477,10,10,10h44.294c4.967,27.457,29.028,48.353,57.894,48.353c28.866,0,52.927-20.896,57.894-48.353h171.336
				c4.967,27.457,29.028,48.353,57.894,48.353s52.927-20.896,57.894-48.353h43.297c5.523,0,10-4.478,10-10V258.069
				C510.504,252.546,506.027,248.069,500.504,248.069z M431.975,189.514l29.667,58.554h-56.723v-80.354
				C416.195,171.366,425.889,179.064,431.975,189.514z M207.744,144.493c0.043-0.028,0.121-0.072,0.247-0.124l52.302-21.486
				c24.279-9.974,49.897-15.03,76.142-15.03h51.251c12.26,0,22.233,9.974,22.233,22.233v15.027H208.138
				c-0.128,0-0.214-0.01-0.251-0.01c-0.007,0-0.013,0-0.016,0.001C207.775,144.967,207.713,144.663,207.744,144.493z
				 M384.919,165.34v82.729h-134V165.34H384.919z M143.919,241.348c0-61.03,54.692-73.569,87-75.643v82.362h-87V241.348z
				 M151.029,364.22c-0.228,21.228-17.56,38.43-38.841,38.43s-38.612-17.202-38.84-38.43c-0.197-21.291,17.511-39.272,38.84-39.272
				c21.409,0,38.827,17.406,38.85,38.809c-0.005,0.141-0.009,0.281-0.011,0.423C151.027,364.192,151.029,364.205,151.029,364.22z
				 M399.315,402.648c-21.153,0-38.397-16.996-38.828-38.049c0.053,5.153,0.112,11.324-0.014-0.381
				c-0.064-6.83-0.034-4.241,0.005-0.464c0.048-16.158,10.364-30.808,25.497-36.449c4.241-1.581,8.817-2.359,13.339-2.359
				c16.29,0,31.225,10.589,36.648,25.948c1.51,4.277,2.235,8.791,2.193,13.324C437.927,385.447,420.596,402.648,399.315,402.648z
				 M490.504,354.296h-33.107c-3.645-22.362-20.479-41.038-42.254-47.175c-6.063-1.709-12.424-2.407-18.713-2.101
				c-21.233,1.013-40.631,13.935-49.992,32.976c-2.524,5.134-4.289,10.653-5.21,16.3H170.273
				c-4.774-29.287-30.687-50.546-60.967-49.276c-27.636,1.159-50.803,22.291-55.202,49.276H20v-15.444h14.425
				c5.523,0,10-4.478,10-10c0-5.522-4.477-10-10-10H20v-0.985c0-2.698,0.223-5.343,0.638-7.926h13.787c5.523,0,10-4.478,10-10
				c0-5.522-4.477-10-10-10h-5.836c8.967-13.19,24.092-21.873,41.209-21.873h64.121h107h154h83h12.585V354.296z"/>
			<path d="M360.473,364.218c0.001,0.128,0.011,0.254,0.014,0.381c-0.003-0.286-0.006-0.569-0.009-0.846
				C360.478,363.909,360.472,364.063,360.473,364.218z"/>
			<path d="M461.125,277.853h-43.867c-5.523,0-10,4.478-10,10c0,5.522,4.477,10,10,10h43.867c5.523,0,10-4.478,10-10
				C471.125,282.33,466.648,277.853,461.125,277.853z"/>
			<path d="M371.398,277.853H160.042c-5.523,0-10,4.478-10,10c0,5.522,4.477,10,10,10h211.355c5.523,0,10-4.478,10-10
				C381.397,282.33,376.921,277.853,371.398,277.853z"/>
			<path d="M131.729,353.798c-0.889,0-1.746,0.127-2.566,0.345c-4.277,1.135-7.434,5.021-7.434,9.655
				c0,5.261-4.28,9.541-9.541,9.541c-4.634,0-8.521,3.157-9.655,7.434c-0.218,0.82-0.345,1.677-0.345,2.566c0,5.522,4.477,10,10,10
				c16.289,0,29.541-13.252,29.541-29.541C141.729,358.275,137.252,353.798,131.729,353.798z"/>
			<path d="M112.188,354.257c4.634,0,8.521-3.157,9.655-7.435c0.217-0.82,0.345-1.677,0.345-2.565c0-5.522-4.477-10-10-10
				c-16.289,0-29.541,13.252-29.541,29.54c0,5.522,4.477,10,10,10c0.889,0,1.745-0.127,2.566-0.345
				c4.278-1.134,7.434-5.021,7.434-9.655C102.648,358.536,106.928,354.257,112.188,354.257z"/>
			<path d="M418.854,353.798c-0.889,0-1.746,0.127-2.566,0.345c-4.277,1.135-7.434,5.021-7.434,9.655
				c0,5.261-4.28,9.541-9.541,9.541c-4.634,0-8.521,3.157-9.655,7.434c-0.218,0.82-0.345,1.677-0.345,2.566c0,5.522,4.477,10,10,10
				c16.289,0,29.541-13.252,29.541-29.541C428.854,358.275,424.376,353.798,418.854,353.798z"/>
			<path d="M399.313,354.257c4.634,0,8.521-3.157,9.655-7.435c0.217-0.82,0.345-1.677,0.345-2.565c0-5.522-4.477-10-10-10
				c-16.289,0-29.541,13.252-29.541,29.54c0,5.522,4.477,10,10,10c0.889,0,1.746-0.127,2.566-0.345
				c4.277-1.134,7.434-5.021,7.434-9.655C389.772,358.536,394.052,354.257,399.313,354.257z"/>
			<path d="M277.919,198.251h43.867c5.523,0,10-4.478,10-10c0-5.522-4.477-10-10-10h-43.867c-5.523,0-10,4.478-10,10
				C267.919,193.772,272.396,198.251,277.919,198.251z"/>
		</g>
	</g>
</g>
<g>
</g>
<g>
</g>
<g>
</g>
<g>
</g>
<g>
</g>
<g>
</g>
<g>
</g>
<g>
</g>
<g>
</g>
<g>
</g>
<g>
</g>
<g>
</g>
<g>
</g>
<g>
</g>
<g>
</g>
</svg>
